<svg width="24" height="25" viewBox="0 0 24 25" fill="none" xmlns="http://www.w3.org/2000/svg">
<path d="M11 6.01554H13.6929C13.8829 6.01554 14.0565 5.90787 14.1409 5.73767L14.8191 4.36996C14.9221 4.16226 15.1533 4.05317 15.3761 4.11708C16.0315 4.30503 17.4069 4.75845 18.5042 5.51554C22.3682 8.41276 22.0078 14.9052 21.9786 16.2764C21.9768 16.3601 21.9554 16.4427 21.9142 16.5155C19.9311 20.0155 16.491 20.0155 16.491 20.0155L15.3248 17.5893M13 6.01554H10.3119C10.1224 6.01554 9.94909 5.90833 9.86449 5.73869L9.18127 4.36874C9.07799 4.16164 8.84722 4.05305 8.62476 4.11683C7.96978 4.30462 6.59358 4.75811 5.49577 5.51554C1.6318 8.41276 1.99218 14.9052 2.0214 16.2764C2.02319 16.3601 2.04456 16.4427 2.08583 16.5155C4.06894 20.0155 7.50897 20.0155 7.50897 20.0155L8.67893 17.5889M7.00128 17.0155C7.60094 17.2404 8.15567 17.4315 8.67893 17.5889M17.0038 17.0155C16.4036 17.2406 15.8485 17.4318 15.3248 17.5893M8.67893 17.5889C11.1232 18.3243 12.8808 18.3244 15.3248 17.5893M10.0021 12.0155C10.0021 12.5678 9.55422 13.0155 9.00179 13.0155C8.44937 13.0155 8.00154 12.5678 8.00154 12.0155C8.00154 11.4633 8.44937 11.0155 9.00179 11.0155C9.55422 11.0155 10.0021 11.4633 10.0021 12.0155ZM16.0036 12.0155C16.0036 12.5678 15.5558 13.0155 15.0033 13.0155C14.4509 13.0155 14.0031 12.5678 14.0031 12.0155C14.0031 11.4633 14.4509 11.0155 15.0033 11.0155C15.5558 11.0155 16.0036 11.4633 16.0036 12.0155Z" stroke="white" stroke-width="2" stroke-linecap="round" stroke-linejoin="round"/>
</svg>
