<svg width="24" height="25" viewBox="0 0 24 25" fill="none" xmlns="http://www.w3.org/2000/svg">
<path d="M14.5964 8.01562C13.3362 8.01562 12.7062 8.01562 12.2249 8.29589C11.8015 8.54242 11.4573 8.93581 11.2416 9.41963C10.9964 9.96973 10.9964 10.6897 10.9964 12.1299V21.0156M8.74641 13.0156H14.7464M3 12.0156C3 9.50202 3 8.24521 3.35354 7.23487C3.98676 5.42522 5.40959 4.00238 7.21924 3.36916C8.22958 3.01562 9.48639 3.01562 12 3.01562C14.5136 3.01562 15.7704 3.01562 16.7808 3.36916C18.5904 4.00238 20.0132 5.42522 20.6465 7.23487C21 8.24521 21 9.50202 21 12.0156C21 14.5292 21 15.786 20.6465 16.7964C20.0132 18.606 18.5904 20.0288 16.7808 20.6621C15.7704 21.0156 14.5136 21.0156 12 21.0156C9.48639 21.0156 8.22958 21.0156 7.21924 20.6621C5.40959 20.0288 3.98676 18.606 3.35354 16.7964C3 15.786 3 14.5292 3 12.0156Z" stroke="white" stroke-width="2" stroke-linecap="round" stroke-linejoin="round"/>
</svg>
