<svg width="24" height="25" viewBox="0 0 24 25" fill="none" xmlns="http://www.w3.org/2000/svg">
<path d="M10 15.0149C9.34732 15.7143 8.98919 16.6383 9 17.5949V21.0149M14 15.0149C14.6527 15.7143 15.0108 16.6383 15 17.5949V21.0149M9 19.0649C8.10549 19.4211 7.13532 19.545 6.18 19.4249C4.66 18.9049 5.06 17.5249 4.28 16.9549C3.90518 16.6869 3.46037 16.534 3 16.5149M19 9.76489C19 12.7649 17.05 15.0149 12 15.0149C6.95 15.0149 5 12.7649 5 9.76489C4.9753 8.72407 5.20893 7.69334 5.68 6.76489C5.34 5.29489 5.47 3.48489 6.2 3.12489C6.93 2.76489 8.47 3.42489 9.74 4.27489C10.486 4.14177 11.2422 4.07485 12 4.07489C12.7572 4.06824 13.5134 4.12848 14.26 4.25489C15.53 3.40489 17.14 2.77489 17.8 3.10489C18.46 3.43489 18.66 5.27489 18.32 6.74489C18.7943 7.67934 19.028 8.71734 19 9.76489Z" stroke="white" stroke-width="2" stroke-linecap="round" stroke-linejoin="round"/>
</svg>
