<svg width="24" height="25" viewBox="0 0 24 25" fill="none" xmlns="http://www.w3.org/2000/svg">
<path d="M17.0464 7.01508H17.0564M3.04639 12.0156C3.04639 9.50202 3.04639 8.24521 3.39993 7.23487C4.03315 5.42522 5.45598 4.00238 7.26563 3.36916C8.27597 3.01562 9.53278 3.01562 12.0464 3.01562C14.56 3.01562 15.8168 3.01562 16.8272 3.36916C18.6368 4.00238 20.0596 5.42522 20.6929 7.23487C21.0464 8.24521 21.0464 9.50202 21.0464 12.0156C21.0464 14.5292 21.0464 15.786 20.6929 16.7964C20.0596 18.606 18.6368 20.0288 16.8272 20.6621C15.8168 21.0156 14.56 21.0156 12.0464 21.0156C9.53278 21.0156 8.27597 21.0156 7.26563 20.6621C5.45598 20.0288 4.03315 18.606 3.39993 16.7964C3.04639 15.786 3.04639 14.5292 3.04639 12.0156ZM15.8239 11.4554C15.9417 12.25 15.806 13.0614 15.436 13.7744C15.0661 14.4874 14.4808 15.0655 13.7633 15.4267C13.0458 15.7878 12.2327 15.9135 11.4397 15.7859C10.6467 15.6583 9.91407 15.2839 9.3461 14.7159C8.77813 14.1479 8.40371 13.4153 8.27611 12.6223C8.1485 11.8293 8.2742 11.0162 8.63532 10.2987C8.99644 9.58127 9.57461 8.99594 10.2876 8.62599C11.0006 8.25605 11.812 8.12032 12.6065 8.23815C13.417 8.35832 14.1673 8.73598 14.7467 9.31533C15.326 9.89469 15.7037 10.645 15.8239 11.4554Z" stroke="white" stroke-width="2" stroke-linecap="round" stroke-linejoin="round"/>
</svg>
