<svg width="512" height="512" viewBox="0 0 512 512" fill="none" xmlns="http://www.w3.org/2000/svg">
<rect width="512" height="512" fill="white"/>
<path d="M328.421 295.456C328.421 349.698 284.449 393.671 230.206 393.671C175.964 393.671 131.992 349.698 131.992 295.456C131.992 241.214 175.964 197.241 230.206 197.241C284.449 197.241 328.421 241.214 328.421 295.456Z" fill="#252525" stroke="#0D0D0D" stroke-width="1.88182"/>
<path d="M337.714 283.502C337.714 337.744 293.742 381.716 239.499 381.716C185.257 381.716 141.285 337.744 141.285 283.502C141.285 229.259 185.257 185.287 239.499 185.287C293.742 185.287 337.714 229.259 337.714 283.502Z" fill="white" fill-opacity="0.8" stroke="#0D0D0D" stroke-width="1.88182"/>
<mask id="mask0_357_1139" style="mask-type:alpha" maskUnits="userSpaceOnUse" x="142" y="186" width="195" height="195">
<ellipse cx="239.498" cy="283.504" rx="97.3527" ry="97.3527" transform="rotate(22.3651 239.498 283.504)" fill="white"/>
</mask>
<g mask="url(#mask0_357_1139)">
<rect x="243.781" y="173.923" width="75.4381" height="202.106" transform="rotate(22.3651 243.781 173.923)" fill="white"/>
</g>
<path d="M306.731 283.502C306.731 320.632 276.63 350.733 239.5 350.733C202.369 350.733 172.269 320.632 172.269 283.502C172.269 246.371 202.369 216.271 239.5 216.271C276.63 216.271 306.731 246.371 306.731 283.502Z" stroke="#0D0D0D" stroke-width="1.88182"/>
<mask id="path-6-inside-1_357_1139" fill="white">
<path d="M257.974 263.001L201.384 272.979L213.184 256.18L269.773 246.202L257.974 263.001ZM265.811 307.448L209.221 317.426L221.022 300.634L277.612 290.656M219.62 292.678L276.209 282.7L259.375 270.95L202.786 280.928"/>
</mask>
<path d="M257.974 263.001L201.384 272.979L213.184 256.18L269.773 246.202L257.974 263.001ZM265.811 307.448L209.221 317.426L221.022 300.634L277.612 290.656M219.62 292.678L276.209 282.7L259.375 270.95L202.786 280.928" fill="#858383"/>
<path d="M257.974 263.001L258.052 263.444L258.235 263.411L258.342 263.259L257.974 263.001ZM201.384 272.979L201.016 272.72L200.39 273.611L201.462 273.422L201.384 272.979ZM213.184 256.18L213.106 255.737L212.923 255.769L212.816 255.921L213.184 256.18ZM269.773 246.202L270.142 246.46L270.767 245.57L269.695 245.759L269.773 246.202ZM209.221 317.426L208.853 317.167L208.227 318.058L209.299 317.869L209.221 317.426ZM221.022 300.634L220.944 300.191L220.761 300.223L220.654 300.375L221.022 300.634ZM276.209 282.7L276.287 283.143L277.359 282.954L276.466 282.331L276.209 282.7ZM259.375 270.95L259.633 270.581L259.48 270.474L259.297 270.506L259.375 270.95ZM257.895 262.557L201.306 272.536L201.462 273.422L258.052 263.444L257.895 262.557ZM201.752 273.237L213.552 256.439L212.816 255.921L201.016 272.72L201.752 273.237ZM213.262 256.623L269.851 246.645L269.695 245.759L213.106 255.737L213.262 256.623ZM269.405 245.943L257.605 262.742L258.342 263.259L270.142 246.46L269.405 245.943ZM265.733 307.004L209.143 316.983L209.299 317.869L265.889 307.891L265.733 307.004ZM209.59 317.685L221.391 300.893L220.654 300.375L208.853 317.167L209.59 317.685ZM221.101 301.077L277.69 291.099L277.534 290.213L220.944 300.191L221.101 301.077ZM219.698 293.121L276.287 283.143L276.131 282.256L219.541 292.235L219.698 293.121ZM276.466 282.331L259.633 270.581L259.118 271.319L275.951 283.069L276.466 282.331ZM259.297 270.506L202.708 280.485L202.864 281.371L259.453 271.393L259.297 270.506Z" fill="black" mask="url(#path-6-inside-1_357_1139)"/>
<path d="M473.421 265.456C473.421 319.698 429.449 363.671 375.206 363.671C320.964 363.671 276.992 319.698 276.992 265.456C276.992 211.214 320.964 167.241 375.206 167.241C429.449 167.241 473.421 211.214 473.421 265.456Z" fill="#252525" stroke="#0D0D0D" stroke-width="1.88182"/>
<path d="M482.714 253.502C482.714 307.744 438.742 351.716 384.499 351.716C330.257 351.716 286.285 307.744 286.285 253.502C286.285 199.259 330.257 155.287 384.499 155.287C438.742 155.287 482.714 199.259 482.714 253.502Z" fill="white" fill-opacity="0.8" stroke="#0D0D0D" stroke-width="1.88182"/>
<mask id="mask1_357_1139" style="mask-type:alpha" maskUnits="userSpaceOnUse" x="287" y="156" width="195" height="195">
<ellipse cx="384.498" cy="253.504" rx="97.3527" ry="97.3527" transform="rotate(22.3651 384.498 253.504)" fill="white"/>
</mask>
<g mask="url(#mask1_357_1139)">
<rect x="388.781" y="143.923" width="75.4381" height="202.106" transform="rotate(22.3651 388.781 143.923)" fill="white"/>
</g>
<path d="M451.731 253.502C451.731 290.632 421.63 320.733 384.5 320.733C347.369 320.733 317.269 290.632 317.269 253.502C317.269 216.371 347.369 186.271 384.5 186.271C421.63 186.271 451.731 216.371 451.731 253.502Z" stroke="#0D0D0D" stroke-width="1.88182"/>
<g clip-path="url(#clip0_357_1139)">
<path opacity="0.45" d="M385.955 211.569L379.931 237.076L355.301 244.139L361.316 218.635L385.963 211.567" fill="#2A2A2A"/>
<path opacity="0.6" d="M379.931 237.076L404.579 230.009L385.956 211.569L361.316 218.635L379.931 237.076Z" fill="#2A2A2A"/>
<path opacity="0.8" d="M373.914 262.571L379.932 237.081L361.316 218.635L355.301 244.139L373.914 262.571Z" fill="#2A2A2A"/>
<path opacity="0.45" d="M383.49 295.5L389.515 269.994L414.162 262.926L408.13 288.435L383.49 295.5Z" fill="#2A2A2A"/>
<path opacity="0.6" d="M389.514 269.994L364.873 277.059L383.49 295.5L408.137 288.433L389.514 269.994Z" fill="#2A2A2A"/>
<path opacity="0.8" d="M395.531 244.499L389.513 269.989L408.13 288.435L414.154 262.928L395.531 244.499Z" fill="#2A2A2A"/>
</g>
<defs>
<clipPath id="clip0_357_1139">
<rect width="51.3939" height="80" fill="white" transform="translate(349 222.166) rotate(-16)"/>
</clipPath>
</defs>
</svg>
