<svg width="256" height="256" viewBox="0 0 256 256" fill="none" xmlns="http://www.w3.org/2000/svg">
<path d="M184.534 22H39.466C34.8338 22 30.3912 23.8402 27.1157 27.1157C23.8402 30.3912 22 34.8338 22 39.466V184.534C22 189.166 23.8402 193.609 27.1157 196.884C30.3912 200.16 34.8338 202 39.466 202H184.534C189.166 202 193.609 200.16 196.884 196.884C200.16 193.609 202 189.166 202 184.534V39.466C202 34.8338 200.16 30.3912 196.884 27.1157C193.609 23.8402 189.166 22 184.534 22ZM192.019 184.534C192.019 186.519 191.231 188.423 189.827 189.827C188.423 191.231 186.519 192.019 184.534 192.019H39.466C37.4808 192.019 35.5768 191.231 34.173 189.827C32.7692 188.423 31.9806 186.519 31.9806 184.534V39.466C31.9806 37.4808 32.7692 35.5768 34.173 34.173C35.5768 32.7692 37.4808 31.9806 39.466 31.9806H184.534C186.519 31.9806 188.423 32.7692 189.827 34.173C191.231 35.5768 192.019 37.4808 192.019 39.466V184.534Z" fill="#231F20"/>
<path d="M216.534 54H71.466C66.8338 54 62.3912 55.8402 59.1157 59.1157C55.8402 62.3912 54 66.8338 54 71.466V216.534C54 221.166 55.8402 225.609 59.1157 228.884C62.3912 232.16 66.8338 234 71.466 234H216.534C221.166 234 225.609 232.16 228.884 228.884C232.16 225.609 234 221.166 234 216.534V71.466C234 66.8338 232.16 62.3912 228.884 59.1157C225.609 55.8402 221.166 54 216.534 54ZM224.019 216.534C224.019 218.519 223.231 220.423 221.827 221.827C220.423 223.231 218.519 224.019 216.534 224.019H71.466C69.4808 224.019 67.5768 223.231 66.173 221.827C64.7692 220.423 63.9806 218.519 63.9806 216.534V71.466C63.9806 69.4808 64.7692 67.5768 66.173 66.173C67.5768 64.7692 69.4808 63.9806 71.466 63.9806H216.534C218.519 63.9806 220.423 64.7692 221.827 66.173C223.231 67.5768 224.019 69.4808 224.019 71.466V216.534Z" fill="#231F20"/>
<path d="M89.1274 152C85.7664 152 82.9409 151.409 80.651 150.227C78.361 149.045 76.4774 147.476 75 145.518L78.9889 141.695C80.4663 143.468 82.036 144.779 83.6981 145.629C85.3601 146.441 87.2438 146.848 89.349 146.848C91.7867 146.848 93.6519 146.294 94.9446 145.186C96.2742 144.078 96.9391 142.489 96.9391 140.421C96.9391 138.759 96.4589 137.485 95.4986 136.598C94.5383 135.675 92.8947 135.01 90.5679 134.604L86.3573 133.939C84.5106 133.644 82.9594 133.163 81.7036 132.499C80.4478 131.797 79.4321 130.984 78.6565 130.061C77.8809 129.101 77.3084 128.048 76.9391 126.903C76.6066 125.721 76.4404 124.484 76.4404 123.191C76.4404 119.535 77.6223 116.765 79.9861 114.881C82.35 112.96 85.6002 112 89.7368 112C92.8024 112 95.4063 112.499 97.5485 113.496C99.7276 114.456 101.482 115.823 102.812 117.596L98.9335 121.474C97.8624 120.181 96.5882 119.147 95.1108 118.371C93.6704 117.559 91.879 117.152 89.7368 117.152C87.4469 117.152 85.6925 117.651 84.4737 118.648C83.2918 119.608 82.7008 121.03 82.7008 122.914C82.7008 124.502 83.1625 125.758 84.0859 126.681C85.0462 127.568 86.7267 128.214 89.1274 128.62L93.2271 129.341C96.699 129.969 99.229 131.243 100.817 133.163C102.405 135.047 103.199 137.355 103.199 140.089C103.199 141.861 102.886 143.487 102.258 144.964C101.667 146.441 100.762 147.697 99.5429 148.731C98.361 149.765 96.8837 150.578 95.1108 151.169C93.3749 151.723 91.3804 152 89.1274 152Z" fill="black"/>
<path d="M129.327 152C125.966 152 123.14 151.409 120.85 150.227C118.56 149.045 116.677 147.476 115.199 145.518L119.188 141.695C120.666 143.468 122.235 144.779 123.898 145.629C125.56 146.441 127.443 146.848 129.548 146.848C131.986 146.848 133.851 146.294 135.144 145.186C136.474 144.078 137.139 142.489 137.139 140.421C137.139 138.759 136.658 137.485 135.698 136.598C134.738 135.675 133.094 135.01 130.767 134.604L126.557 133.939C124.71 133.644 123.159 133.163 121.903 132.499C120.647 131.797 119.632 130.984 118.856 130.061C118.08 129.101 117.508 128.048 117.139 126.903C116.806 125.721 116.64 124.484 116.64 123.191C116.64 119.535 117.822 116.765 120.186 114.881C122.549 112.96 125.8 112 129.936 112C133.002 112 135.606 112.499 137.748 113.496C139.927 114.456 141.681 115.823 143.011 117.596L139.133 121.474C138.062 120.181 136.788 119.147 135.31 118.371C133.87 117.559 132.079 117.152 129.936 117.152C127.646 117.152 125.892 117.651 124.673 118.648C123.491 119.608 122.9 121.03 122.9 122.914C122.9 124.502 123.362 125.758 124.285 126.681C125.246 127.568 126.926 128.214 129.327 128.62L133.427 129.341C136.898 129.969 139.428 131.243 141.017 133.163C142.605 135.047 143.399 137.355 143.399 140.089C143.399 141.861 143.085 143.487 142.457 144.964C141.866 146.441 140.961 147.697 139.742 148.731C138.56 149.765 137.083 150.578 135.31 151.169C133.574 151.723 131.58 152 129.327 152Z" fill="black"/>
<path d="M169.526 152C166.165 152 163.34 151.409 161.05 150.227C158.76 149.045 156.876 147.476 155.399 145.518L159.388 141.695C160.865 143.468 162.435 144.779 164.097 145.629C165.759 146.441 167.643 146.848 169.748 146.848C172.186 146.848 174.051 146.294 175.344 145.186C176.673 144.078 177.338 142.489 177.338 140.421C177.338 138.759 176.858 137.485 175.898 136.598C174.937 135.675 173.294 135.01 170.967 134.604L166.756 133.939C164.91 133.644 163.358 133.163 162.103 132.499C160.847 131.797 159.831 130.984 159.055 130.061C158.28 129.101 157.707 128.048 157.338 126.903C157.006 125.721 156.839 124.484 156.839 123.191C156.839 119.535 158.021 116.765 160.385 114.881C162.749 112.96 165.999 112 170.136 112C173.201 112 175.805 112.499 177.947 113.496C180.127 114.456 181.881 115.823 183.211 117.596L179.332 121.474C178.261 120.181 176.987 119.147 175.51 118.371C174.069 117.559 172.278 117.152 170.136 117.152C167.846 117.152 166.091 117.651 164.873 118.648C163.691 119.608 163.1 121.03 163.1 122.914C163.1 124.502 163.561 125.758 164.485 126.681C165.445 127.568 167.126 128.214 169.526 128.62L173.626 129.341C177.098 129.969 179.628 131.243 181.216 133.163C182.804 135.047 183.598 137.355 183.598 140.089C183.598 141.861 183.284 143.487 182.657 144.964C182.066 146.441 181.161 147.697 179.942 148.731C178.76 149.765 177.283 150.578 175.51 151.169C173.774 151.723 171.779 152 169.526 152Z" fill="black"/>
</svg>
