<svg width="169" height="23" viewBox="0 0 192 24" fill="none" xmlns="http://www.w3.org/2000/svg">
<path d="M6.3608 24C5.14922 24 4.28508 23.7238 3.76837 23.1715C3.25167 22.637 2.99332 21.951 2.99332 21.1136V19.9109C2.99332 19.4655 3.03786 19.0735 3.12695 18.735C3.23385 18.3964 3.35857 18.0935 3.50111 17.8263C3.64365 17.559 3.80401 17.3274 3.98218 17.1314C4.16036 16.9176 4.32962 16.7127 4.48998 16.5167C4.79287 16.1604 4.99777 15.8575 5.10468 15.608C5.2294 15.3408 5.29176 15.0646 5.29176 14.7795C5.29176 14.3163 5.05123 13.9599 4.57016 13.7105C4.08909 13.461 3.36748 13.3363 2.40535 13.3363H0V10.6637H2.40535C3.36748 10.6637 4.08909 10.539 4.57016 10.2895C5.05123 10.0401 5.29176 9.68374 5.29176 9.22049C5.29176 8.93541 5.2294 8.66815 5.10468 8.41871C4.99777 8.15145 4.79287 7.83964 4.48998 7.4833C4.32962 7.30512 4.16036 7.10913 3.98218 6.89532C3.80401 6.68151 3.64365 6.44098 3.50111 6.17372C3.35857 5.90646 3.23385 5.60356 3.12695 5.26503C3.03786 4.9265 2.99332 4.53452 2.99332 4.08909V2.88642C2.99332 2.049 3.25167 1.36303 3.76837 0.828508C4.28508 0.276169 5.14922 0 6.3608 0H11.118V2.64588H6.17372V3.92873C6.17372 4.60579 6.28062 5.12249 6.49443 5.47884C6.72606 5.83519 6.9755 6.19154 7.24276 6.54788C7.54566 6.92205 7.83074 7.32294 8.098 7.75056C8.36526 8.17817 8.49889 8.67706 8.49889 9.24722C8.49889 9.99555 8.24053 10.5924 7.72383 11.0379C7.20713 11.4833 6.41425 11.7684 5.34521 11.8931V12.1069C6.41425 12.2316 7.20713 12.5167 7.72383 12.9621C8.24053 13.4076 8.49889 14.0045 8.49889 14.7528C8.49889 15.3229 8.36526 15.8218 8.098 16.2494C7.83074 16.6771 7.54566 17.078 7.24276 17.4521C6.9755 17.8085 6.72606 18.1648 6.49443 18.5212C6.28062 18.8775 6.17372 19.3942 6.17372 20.0713V21.3541H11.118V24H6.3608Z" fill="#ED8936"/>
<path d="M21.9358 4L21.7345 15.2937H19.5904L19.3891 4H21.9358ZM20.6663 20C20.238 20 19.8716 19.8503 19.5671 19.551C19.2627 19.2466 19.113 18.8802 19.1182 18.4519C19.113 18.0287 19.2627 17.6675 19.5671 17.3682C19.8716 17.0637 20.238 16.9115 20.6663 16.9115C21.0843 16.9115 21.4455 17.0637 21.75 17.3682C22.0545 17.6675 22.2093 18.0287 22.2144 18.4519C22.2093 18.7357 22.1345 18.9963 21.99 19.2337C21.8506 19.4659 21.6649 19.6517 21.4326 19.791C21.2004 19.9303 20.945 20 20.6663 20Z" fill="#F56565"/>
<path d="M53.1236 21.0909H56.0327V24H53.1236V21.0909ZM38.5781 21.0909H41.4872V24H38.5781V21.0909ZM56.0327 5.81818H54.5781V4.36364H53.1236V2.90909H50.9418V0H49.4872V2.90909H45.1236V0H43.669V2.90909H41.4872V4.36364H40.0327V5.81818H38.5781V10.9091H35.669V12.3636H38.5781V17.4545H41.4872V21.0909H45.1236V17.4545H49.4872V21.0909H53.1236V17.4545H56.0327V12.3636H58.9418V10.9091H56.0327V5.81818ZM45.8508 13.8182H42.9418V8H45.8508V13.8182ZM48.7599 13.8182V8H51.669V13.8182H48.7599ZM58.9418 2.90909H60.3963V10.9091H58.9418V2.90909ZM34.2145 2.90909H35.669V10.9091H34.2145V2.90909Z" fill="#805AD5"/>
<path d="M78.0425 20L76.4991 18.4737L82.9729 12L76.4991 5.53483L78.0425 4L86.0425 12L78.0425 20ZM68.3962 15.224V13.0375H83.5388L81.3437 15.224H68.3962ZM68.3962 10.9625V8.77599H81.3437L83.5388 10.9625H68.3962Z" fill="#38B2AC"/>
<g clip-path="url(#clip0_357_619)">
<path opacity="0.45" d="M105.612 0L101.753 6.85749H94.0426L97.8981 0H105.614" fill="#4299E1"/>
<path opacity="0.6" d="M101.753 6.85749H109.469L105.611 0H97.8981L101.753 6.85749Z" fill="#4299E1"/>
<path opacity="0.8" d="M97.8981 13.7121L101.753 6.85892L97.8981 0L94.0426 6.85749L97.8981 13.7121Z" fill="#4299E1"/>
<path opacity="0.45" d="M97.9364 24L101.795 17.1425H109.511L105.65 24H97.9364Z" fill="#4299E1"/>
<path opacity="0.6" d="M101.795 17.1425H94.0809L97.9364 24H105.652L101.795 17.1425Z" fill="#4299E1"/>
<path opacity="0.8" d="M105.65 10.2879L101.795 17.1411L105.65 24L109.508 17.1425L105.65 10.2879Z" fill="#4299E1"/>
</g>
<path d="M127.911 20V4H131.094V20H127.911ZM121.508 13.5858V10.4024H137.508V13.5858H121.508Z" fill="#38B2AC"/>
<path d="M156.726 19.7354C156.274 19.4156 155.851 19.0667 155.459 18.6935C155.237 18.4832 155.027 18.2642 154.825 18.0389C151.71 14.5607 150.929 9.37557 153.259 5.01967C153.639 4.31015 154.084 3.65773 154.58 3.0642C153.07 4.07369 151.779 5.45708 150.862 7.17055C148.502 11.5808 149.331 16.8418 152.544 20.3199C152.749 20.542 152.965 20.7557 153.19 20.9625C153.796 21.521 154.469 22.0228 155.209 22.4518L156.726 19.7354Z" fill="#2775BB"/>
<path d="M163.847 3.84128L161.917 1.17085L161.41 0.469597C161.387 0.655673 161.371 0.886111 161.376 1.13761C161.396 2.19924 161.808 3.64616 163.847 3.84128Z" fill="#80C88E"/>
<path d="M165.708 3.64358L166.345 2.5028L165.689 2.16489L161.491 0L162.374 1.22041L163.113 2.2436L164.285 3.86535L163.978 4.02338L154.595 8.85144H162.801L165.708 3.64358ZM161.643 8.16455C161.077 8.16455 160.617 7.70418 160.617 7.13834C160.617 6.57249 161.077 6.11212 161.643 6.11212C162.209 6.11212 162.669 6.57249 162.669 7.13834C162.669 7.70418 162.209 8.16455 161.643 8.16455Z" fill="#2775BB"/>
<path d="M161.964 6.52416C161.971 6.55007 161.975 6.57675 161.975 6.60465C161.975 6.78781 161.826 6.93678 161.643 6.93678C161.46 6.93678 161.311 6.78781 161.311 6.60465C161.311 6.57678 161.316 6.55009 161.322 6.52419C161.1 6.64059 160.947 6.87044 160.947 7.13834C160.947 7.52278 161.259 7.83443 161.643 7.83443C162.028 7.83443 162.339 7.52278 162.339 7.13834C162.339 6.87039 162.186 6.64053 161.964 6.52416Z" fill="#24282A"/>
<path d="M168.605 10.2486C168.331 9.34283 167.901 8.50417 167.345 7.76483L165.176 9.46529C165.511 9.92277 165.775 10.4361 165.95 10.9892L168.605 10.2486Z" fill="#80C88E"/>
<path d="M157.693 20.2416C157.462 20.1433 157.236 20.0341 157.016 19.9161L157.01 19.9278L155.506 22.6216C155.521 22.6297 155.535 22.6384 155.55 22.6463C155.747 22.7519 155.946 22.8493 156.147 22.9422C156.21 22.9714 156.273 22.998 156.337 23.0261C156.476 23.0878 156.617 23.1472 156.758 23.2029C156.83 23.2316 156.903 23.2591 156.975 23.2861C157.114 23.3376 157.253 23.3858 157.393 23.4316C157.461 23.4541 157.53 23.4774 157.598 23.4985C157.769 23.551 157.941 23.5989 158.113 23.643C158.143 23.6505 158.172 23.6596 158.201 23.6668C158.207 23.6683 158.213 23.6702 158.219 23.6716C158.234 23.6754 158.25 23.6778 158.265 23.6815C158.443 23.7246 158.622 23.7628 158.801 23.797C158.815 23.7997 158.829 23.8034 158.843 23.806C158.885 23.8139 158.928 23.8197 158.97 23.8271C158.986 23.83 159.003 23.8325 159.019 23.8353C159.146 23.8571 159.274 23.8761 159.401 23.8934L159.774 20.8188C159.046 20.7159 158.348 20.5203 157.693 20.2416Z" fill="#80C88E"/>
<path d="M160.153 20.5218C160.414 20.5477 160.679 20.5614 160.947 20.5614C161.632 20.5614 162.297 20.4747 162.931 20.3121L162.19 17.6548C161.791 17.7522 161.375 17.805 160.947 17.805C160.791 17.805 160.638 17.7969 160.485 17.7835L160.153 20.5218Z" fill="#80C88E"/>
<path d="M162.399 14.1369L164.101 16.3088C164.504 15.9692 164.848 15.5643 165.125 15.1131L162.726 13.7604C162.632 13.8988 162.521 14.024 162.399 14.1369Z" fill="#80C88E"/>
<path d="M163.352 20.5481L164.182 23.5247C164.308 23.4875 164.434 23.4503 164.558 23.4088C164.61 23.3918 164.661 23.3761 164.712 23.3583C164.924 23.2843 165.134 23.2044 165.341 23.1181C165.386 23.0995 165.43 23.0789 165.475 23.0597C165.642 22.9877 165.807 22.9118 165.97 22.8319C166.03 22.8028 166.089 22.7736 166.148 22.7435C166.327 22.6521 166.504 22.5566 166.679 22.4557C166.702 22.4421 166.726 22.4297 166.75 22.4159C166.945 22.3012 167.136 22.1791 167.325 22.0526C167.376 22.0178 167.427 21.9816 167.478 21.9459C167.609 21.8553 167.737 21.7608 167.864 21.6645L165.954 19.2281C165.18 19.8111 164.301 20.2616 163.352 20.5481Z" fill="#80C88E"/>
<path d="M161.686 14.5733L162.428 17.2338C162.937 17.072 163.408 16.826 163.83 16.5173L162.131 14.3492C161.993 14.4408 161.843 14.5152 161.686 14.5733Z" fill="#80C88E"/>
<path d="M162.892 13.4621L165.295 14.817C165.535 14.3559 165.701 13.852 165.784 13.3202L163.05 12.9885C163.016 13.1544 162.961 13.3124 162.892 13.4621Z" fill="#80C88E"/>
<path d="M165.849 12.5616C165.849 12.1649 165.796 11.781 165.707 11.4114L163.052 12.1518C163.078 12.2846 163.093 12.4214 163.093 12.5616C163.093 12.5912 163.089 12.62 163.088 12.6493L165.828 12.9816C165.84 12.8429 165.849 12.7034 165.849 12.5616Z" fill="#80C88E"/>
<path d="M162.762 11.4219C162.841 11.5476 162.907 11.6819 162.959 11.8232L165.62 11.0812C165.458 10.5719 165.212 10.1011 164.903 9.67868L162.918 11.2342L162.83 11.3032L162.735 11.3777C162.74 11.3857 162.745 11.3943 162.75 11.4024C162.754 11.4088 162.758 11.4155 162.762 11.4219Z" fill="#80C88E"/>
<path d="M166.223 19.017L168.133 21.4538C168.283 21.332 168.433 21.2093 168.578 21.0794C168.603 21.0574 168.626 21.0339 168.65 21.0118C168.798 20.8773 168.942 20.7381 169.083 20.5952C169.13 20.5469 169.177 20.4978 169.224 20.4485C169.355 20.3113 169.482 20.1704 169.607 20.0258C169.637 19.9899 169.669 19.9554 169.7 19.9191C169.849 19.7405 169.994 19.5561 170.134 19.3668C170.168 19.3199 170.201 19.2714 170.235 19.2239C170.343 19.0728 170.448 18.9184 170.549 18.7607C170.586 18.7033 170.624 18.6461 170.66 18.5879C170.713 18.501 170.763 18.4101 170.814 18.3213L168.125 16.8046C167.624 17.6489 166.979 18.398 166.223 19.017Z" fill="#80C88E"/>
<path d="M160.947 14.707C160.923 14.707 160.899 14.7042 160.875 14.7034C160.87 14.7032 160.865 14.7028 160.859 14.7026L160.855 14.7396L160.527 17.4422C160.666 17.4541 160.805 17.4635 160.947 17.4635C161.344 17.4635 161.728 17.4109 162.097 17.3215L161.357 14.6667C161.224 14.6926 161.087 14.707 160.947 14.707Z" fill="#80C88E"/>
<path d="M168.934 10.1568L171.906 9.32776C171.863 9.18206 171.819 9.03676 171.77 8.89285C171.655 8.55287 171.523 8.21818 171.376 7.89006C171.255 7.6191 171.121 7.35387 170.978 7.09252C170.916 6.9781 170.852 6.86484 170.785 6.75247C170.561 6.37189 170.315 6.00288 170.046 5.64846L167.614 7.55426C168.197 8.3285 168.647 9.20736 168.934 10.1568Z" fill="#80C88E"/>
<path d="M168.294 16.5079L170.986 18.0259C170.999 18.0031 171.013 17.9819 171.025 17.959C171.208 17.6174 171.372 17.2707 171.517 16.9201C171.896 16.0018 172.145 15.0568 172.274 14.1072L169.205 13.735C169.065 14.7254 168.751 15.6606 168.294 16.5079Z" fill="#80C88E"/>
<path d="M172.267 10.9866C172.204 10.5378 172.112 10.0944 171.997 9.65712L169.027 10.4855C169.197 11.1495 169.288 11.8451 169.288 12.5616C169.288 12.8433 169.274 13.1217 169.246 13.3963L172.315 13.7685C172.394 13.0176 172.399 12.2655 172.33 11.5229C172.313 11.3435 172.292 11.1647 172.267 10.9866Z" fill="#80C88E"/>
<path d="M168.866 13.6939L166.13 13.362C166.041 13.9398 165.856 14.4861 165.594 14.9858L167.996 16.3402C168.432 15.531 168.731 14.6388 168.866 13.6939Z" fill="#80C88E"/>
<path d="M167.828 16.6369L165.428 15.2836C165.128 15.774 164.751 16.2111 164.313 16.5787L166.013 18.7484C166.734 18.1571 167.349 17.4422 167.828 16.6369Z" fill="#80C88E"/>
<path d="M160.947 20.903C160.665 20.903 160.387 20.8885 160.112 20.8611L159.74 23.9343C159.85 23.9459 159.96 23.9558 160.07 23.9642C160.086 23.9654 160.102 23.9673 160.117 23.9685C160.142 23.9703 160.167 23.9719 160.192 23.9735C160.24 23.9766 160.288 23.9805 160.335 23.983C160.493 23.9913 160.65 23.9955 160.807 23.9972C160.859 23.9978 160.911 24.0002 160.963 24C161.19 23.9994 161.416 23.9913 161.642 23.9773C161.699 23.9737 161.756 23.9682 161.813 23.9638C161.989 23.9501 162.165 23.9325 162.341 23.9107C162.404 23.9029 162.467 23.8954 162.53 23.8865C162.755 23.8549 162.978 23.8188 163.2 23.7741C163.209 23.7722 163.218 23.7697 163.227 23.7678C163.438 23.7248 163.646 23.6741 163.854 23.6194L163.023 20.6413C162.359 20.812 161.664 20.903 160.947 20.903Z" fill="#80C88E"/>
<path d="M157.183 19.6178C157.404 19.7364 157.631 19.8451 157.865 19.9429C158.48 20.2008 159.134 20.3829 159.815 20.4798L160.147 17.7439C159.84 17.6967 159.542 17.6214 159.255 17.5232C159.004 17.4373 158.762 17.3332 158.529 17.2118L157.77 18.5662L157.183 19.6178Z" fill="#80C88E"/>
<path d="M165.744 18.9595L164.044 16.7896C163.586 17.1255 163.073 17.3895 162.52 17.5638L163.26 20.2192C164.166 19.945 165.005 19.5152 165.744 18.9595Z" fill="#80C88E"/>
<path d="M168.947 12.5616C168.947 11.8769 168.86 11.212 168.698 10.5773L166.041 11.3184C166.138 11.7172 166.191 12.1333 166.191 12.5616C166.191 12.7172 166.183 12.8708 166.169 13.023L168.908 13.3551C168.933 13.0941 168.947 12.8294 168.947 12.5616Z" fill="#80C88E"/>
<path d="M159.429 17.2201C159.674 17.3001 159.928 17.3579 160.188 17.3986L160.419 15.4979L160.52 14.6641C160.354 14.6305 160.196 14.5759 160.047 14.5063L160.044 14.5108L158.697 16.9119C158.931 17.0334 159.175 17.1371 159.429 17.2201Z" fill="#80C88E"/>
<path d="M163.499 8.38412L163.235 8.85145L162.23 10.6345L162.146 10.7831C162.285 10.8767 162.41 10.9876 162.523 11.1101L163.284 10.5136L164.695 9.40809C164.544 9.22982 164.38 9.0649 164.206 8.90964C164.162 8.8702 164.12 8.82804 164.074 8.79019C163.923 8.66445 163.762 8.55038 163.596 8.44333C163.564 8.42276 163.531 8.40397 163.499 8.38412Z" fill="#80C88E"/>
<path d="M165.398 5.0155L165.19 5.38404C165.194 5.38615 165.197 5.38815 165.201 5.39027C165.457 5.54291 165.706 5.70778 165.943 5.88616C166.14 6.03344 166.328 6.18978 166.511 6.35342C166.737 6.55626 166.952 6.77119 167.155 6.99729C167.239 7.09162 167.322 7.18764 167.403 7.28575L169.834 5.38037C169.771 5.30205 169.709 5.22267 169.644 5.14591C169.546 5.03168 169.445 4.92034 169.343 4.8096C169.137 4.58759 168.922 4.37386 168.697 4.16708C168.321 3.82005 167.918 3.49509 167.489 3.19608C167.319 3.07735 167.144 2.96318 166.966 2.85273C166.88 2.79959 166.794 2.74633 166.706 2.69519L166.426 3.19208L165.398 5.0155Z" fill="#80C88E"/>
<path d="M166.269 6.59536C166.108 6.45222 165.943 6.31523 165.771 6.18521C165.538 6.00811 165.294 5.84369 165.042 5.69265C165.035 5.68879 165.029 5.68526 165.022 5.68143L163.669 8.0817C163.699 8.09974 163.727 8.11919 163.756 8.13781C163.952 8.2625 164.139 8.39926 164.316 8.54804C164.338 8.56644 164.359 8.58542 164.381 8.60419C164.589 8.78485 164.783 8.98107 164.96 9.19191C164.961 9.19346 164.963 9.19502 164.964 9.19658L167.134 7.49628C167.062 7.40884 166.988 7.32352 166.913 7.23925C166.71 7.01262 166.495 6.79772 166.269 6.59536Z" fill="#80C88E"/>
<path d="M157.121 15.7431L155.713 14.335C155.063 14.9853 155.063 16.0397 155.713 16.6901C155.792 16.769 155.877 16.8379 155.967 16.8978C156.271 17.1011 156.627 17.1921 156.979 17.1736C157.375 17.1527 157.766 16.9928 158.068 16.6901L157.765 16.387L157.121 15.7431Z" fill="#2775BB"/>
<path d="M159.499 12.6993C159.879 12.6993 160.228 12.5707 160.508 12.3565C160.626 12.2663 160.731 12.1611 160.821 12.0432C161.036 11.763 161.164 11.4139 161.164 11.034H157.834C157.834 11.9537 158.579 12.6993 159.499 12.6993Z" fill="#2775BB"/>
<path d="M160.215 14.2085C160.325 14.2578 160.441 14.2966 160.562 14.323C160.671 14.347 160.785 14.3602 160.901 14.3632C160.916 14.3635 160.932 14.3655 160.947 14.3655C160.99 14.3655 161.032 14.362 161.074 14.3591C161.138 14.3546 161.202 14.347 161.265 14.3358C161.379 14.3154 161.489 14.2843 161.594 14.2437C161.709 14.1995 161.817 14.1444 161.919 14.0788C162.016 14.0169 162.105 13.9463 162.188 13.8678C162.276 13.7839 162.356 13.6916 162.426 13.5915C162.491 13.4984 162.547 13.3989 162.594 13.2942C162.644 13.1838 162.682 13.0678 162.709 12.9471C162.733 12.8375 162.746 12.7241 162.749 12.6081C162.749 12.5925 162.751 12.5773 162.751 12.5616C162.751 12.4531 162.74 12.3474 162.722 12.2441C162.701 12.1303 162.67 12.0205 162.629 11.9152C162.61 11.8643 162.588 11.8147 162.564 11.7662C162.545 11.7268 162.524 11.6883 162.502 11.6506C162.49 11.6301 162.477 11.6096 162.465 11.5896C162.403 11.4934 162.332 11.4036 162.254 11.321C162.17 11.2327 162.077 11.1526 161.977 11.0827C161.975 11.081 161.973 11.0792 161.97 11.0774L160.214 14.2082C160.214 14.2083 160.215 14.2084 160.215 14.2085Z" fill="#80C88E"/>
<path d="M185.135 0C186.347 0 187.211 0.276169 187.728 0.828508C188.244 1.36303 188.503 2.049 188.503 2.88642V4.08909C188.503 4.53452 188.449 4.9265 188.342 5.26503C188.253 5.60356 188.137 5.90646 187.995 6.17372C187.852 6.44098 187.692 6.68151 187.514 6.89532C187.336 7.10913 187.166 7.30512 187.006 7.4833C186.703 7.83964 186.489 8.15145 186.365 8.41871C186.258 8.66815 186.204 8.93541 186.204 9.22049C186.204 9.68374 186.445 10.0401 186.926 10.2895C187.407 10.539 188.128 10.6637 189.091 10.6637H191.496V13.3363H189.091C188.128 13.3363 187.407 13.461 186.926 13.7105C186.445 13.9599 186.204 14.3163 186.204 14.7795C186.204 15.0646 186.258 15.3408 186.365 15.608C186.489 15.8575 186.703 16.1604 187.006 16.5167C187.166 16.7127 187.336 16.9176 187.514 17.1314C187.692 17.3274 187.852 17.559 187.995 17.8263C188.137 18.0935 188.253 18.3964 188.342 18.735C188.449 19.0735 188.503 19.4655 188.503 19.9109V21.1136C188.503 21.951 188.244 22.637 187.728 23.1715C187.211 23.7238 186.347 24 185.135 24H180.378V21.3541H185.322V20.0713C185.322 19.3942 185.206 18.8775 184.975 18.5212C184.761 18.1648 184.52 17.8085 184.253 17.4521C183.95 17.078 183.665 16.6771 183.398 16.2494C183.131 15.8218 182.997 15.3229 182.997 14.7528C182.997 14.0045 183.255 13.4076 183.772 12.9621C184.289 12.5167 185.082 12.2316 186.151 12.1069V11.8931C185.082 11.7684 184.289 11.4833 183.772 11.0379C183.255 10.5924 182.997 9.99555 182.997 9.24722C182.997 8.67706 183.131 8.17817 183.398 7.75056C183.665 7.32294 183.95 6.92205 184.253 6.54788C184.52 6.19154 184.761 5.83519 184.975 5.47884C185.206 5.12249 185.322 4.60579 185.322 3.92873V2.64588H180.378V0H185.135Z" fill="#ED8936"/>
<defs>
<clipPath id="clip0_357_619">
<rect width="15.4656" height="24" fill="white" transform="translate(94.0426)"/>
</clipPath>
</defs>
</svg>
