<svg width="24" height="25" viewBox="0 0 24 25" fill="none" xmlns="http://www.w3.org/2000/svg">
<g id="UFO">
<path id="Vector" d="M16.5609 7.45494C15.7777 5.42718 14.0301 4.01562 12 4.01562C9.96987 4.01562 8.22234 5.42718 7.43913 7.45494M16.5609 7.45494C19.7904 8.11813 22 9.46366 22 11.0156C22 13.2248 17.5228 15.0156 12 15.0156C6.47715 15.0156 2 13.2248 2 11.0156C2 9.46366 4.20962 8.11813 7.43913 7.45494M16.5609 7.45494C16.94 8.43648 17.0719 9.50914 16.9638 10.5547C15.5011 10.848 13.8065 11.0156 12 11.0156C10.1935 11.0156 8.49887 10.848 7.03622 10.5547C6.92815 9.50914 7.06001 8.43648 7.43913 7.45494M4 17.0156L3 19.0156M12 18.0156V21.0156M20 17.0156L21 19.0156" stroke="white" stroke-width="2" stroke-linecap="round" stroke-linejoin="round"/>
</g>
</svg>
